<svg width="114" height="166" viewBox="0 0 114 166" fill="none" xmlns="http://www.w3.org/2000/svg">
<path d="M10.5517 166C7.51724 166 4.96552 164.943 2.89655 162.828C0.965516 160.854 0 158.317 0 155.215V58.7873C0.137931 47.6501 2.68965 37.6408 7.65517 28.7592C12.6207 19.8777 19.3793 12.8994 27.931 7.82421C36.4828 2.60807 46.1379 0 56.8965 0C67.7931 0 77.5173 2.60807 86.069 7.82421C94.6207 12.8994 101.379 19.8777 106.345 28.7592C111.448 37.6408 114 47.6501 114 58.7873C114 69.9244 111.655 79.9338 106.966 88.8153C102.414 97.5558 96.1379 104.534 88.1379 109.75C80.1379 114.825 71.1035 117.363 61.0345 117.363C52.8966 117.363 45.3793 115.671 38.4828 112.288C31.7241 108.763 25.931 104.041 21.1034 98.1198V155.215C21.1034 158.317 20.1379 160.854 18.2069 162.828C16.2759 164.943 13.7241 166 10.5517 166ZM56.8965 98.3312C63.931 98.3312 70.2069 96.6395 75.7241 93.2561C81.2414 89.7316 85.5862 85.0089 88.7586 79.0879C92.069 73.0259 93.7242 66.259 93.7242 58.7873C93.7242 51.1745 92.069 44.4076 88.7586 38.4866C85.5862 32.4246 81.2414 27.7019 75.7241 24.3185C70.2069 20.7941 63.931 19.0318 56.8965 19.0318C50 19.0318 43.7241 20.7941 38.069 24.3185C32.5517 27.7019 28.2069 32.4246 25.0345 38.4866C21.8621 44.4076 20.2759 51.1745 20.2759 58.7873C20.2759 66.259 21.8621 73.0259 25.0345 79.0879C28.2069 85.0089 32.5517 89.7316 38.069 93.2561C43.7241 96.6395 50 98.3312 56.8965 98.3312Z" fill="white"/>
</svg>
